<svg xmlns="http://www.w3.org/2000/svg" version="1.1" xmlns:xlink="http://www.w3.org/1999/xlink" xmlns:svgjs="http://svgjs.dev/svgjs" width="2000" height="1247" viewBox="0 0 2000 1247"><g transform="matrix(1,0,0,1,-1.2121212121212466,0.504858299595071)"><svg viewBox="0 0 396 247" data-background-color="#f9f9f9" preserveAspectRatio="xMidYMid meet" height="1247" width="2000" xmlns="http://www.w3.org/2000/svg" xmlns:xlink="http://www.w3.org/1999/xlink"><g id="tight-bounds" transform="matrix(1,0,0,1,0.2400000000000091,-0.09999999999999432)"><svg viewBox="0 0 395.52 247.2" height="247.2" width="395.52"><g><svg></svg></g><g><svg viewBox="0 0 395.52 247.2" height="247.2" width="395.52"><g transform="matrix(1,0,0,1,75.54432,64.1675553246753)"><svg viewBox="0 0 244.43135999999998 118.86488935064936" height="118.86488935064936" width="244.43135999999998"><g><svg viewBox="0 0 244.43135999999998 118.86488935064936" height="118.86488935064936" width="244.43135999999998"><g><svg viewBox="0 0 244.43135999999998 118.86488935064936" height="118.86488935064936" width="244.43135999999998"><g><svg viewBox="0 0 244.43135999999998 118.86488935064936" height="118.86488935064936" width="244.43135999999998"><g id="textblocktransform"><svg viewBox="0 0 244.43135999999998 118.86488935064936" height="118.86488935064936" width="244.43135999999998" id="textblock"><g><svg viewBox="0 0 244.43135999999998 118.86488935064936" height="118.86488935064936" width="244.43135999999998"><g transform="matrix(1,0,0,1,0,0)"><svg width="244.43135999999998" viewBox="3.200000047683716 -33.70000076293945 69.30000305175781 33.70000076293945" height="118.86488935064936" data-palette-color="#030303"><path d="M9.3-13.2L8.3 0 3.2 0 5.8-33.7 11.9-33.7 16.4-21.4Q17.6-18.25 18.8-14.73 20-11.2 20.6-9.25L20.6-9.25 21.25-7.3Q23.55-14.1 26.3-21.4L26.3-21.4 31-33.7 37.1-33.7 40.2 0 35.1 0 33.9-13.2 32.85-26.7Q30.6-20.35 27.95-13.2L27.95-13.2 23.25-0.65 19.2-0.65 14.65-13.2 10.1-26.5Q10.1-24.3 9.3-13.2L9.3-13.2ZM72.5-33.7L72.5 0 67.35 0 67.35-14.75 52.2-14.75 52.2 0 47.05 0 47.05-33.7 52.2-33.7 52.2-19.2 67.35-19.2 67.35-33.7 72.5-33.7Z" opacity="1" transform="matrix(1,0,0,1,0,0)" fill="#030303" class="wordmark-text-0" data-fill-palette-color="primary" id="text-0"></path></svg></g></svg></g></svg></g></svg></g></svg></g></svg></g></svg></g><path d="M157.037 58.168L157.037 10.062 384.113 10.062 384.113 237.138 157.037 237.138 157.037 189.032 167.756 189.032 167.756 226.419 373.393 226.419 373.393 20.781 167.756 20.781 167.756 58.168Z" fill="#030303" stroke="transparent" data-fill-palette-color="primary"></path></svg></g><defs></defs></svg><rect width="395.52" height="247.2" fill="none" stroke="none" visibility="hidden"></rect></g></svg></g></svg>